<?xml version="1.0" encoding="UTF-8" standalone="no"?>
<!-- Created with Inkscape (http://www.inkscape.org/) -->

<svg
   xmlns:dc="http://purl.org/dc/elements/1.1/"
   xmlns:cc="http://creativecommons.org/ns#"
   xmlns:rdf="http://www.w3.org/1999/02/22-rdf-syntax-ns#"
   xmlns:svg="http://www.w3.org/2000/svg"
   xmlns="http://www.w3.org/2000/svg"
   xmlns:sodipodi="http://sodipodi.sourceforge.net/DTD/sodipodi-0.dtd"
   xmlns:inkscape="http://www.inkscape.org/namespaces/inkscape"
   width="210mm"
   height="297mm"
   viewBox="0 0 210 297"
   version="1.1"
   id="svg8"
   inkscape:version="0.92.2 (5c3e80d, 2017-08-06)"
   sodipodi:docname="background.svg"
   inkscape:export-filename="C:\local_website\tichana\background.png"
   inkscape:export-xdpi="300"
   inkscape:export-ydpi="300">
  <defs
     id="defs2">
    <clipPath
       clipPathUnits="userSpaceOnUse"
       id="clipPath878">
      <rect
         y="129.61008"
         x="70.22448"
         height="56.599777"
         width="57.374249"
         id="rect880"
         style="color:#000000;clip-rule:nonzero;display:inline;overflow:visible;visibility:visible;opacity:1;isolation:auto;mix-blend-mode:normal;color-interpolation:sRGB;color-interpolation-filters:linearRGB;solid-color:#000000;solid-opacity:1;vector-effect:none;fill:#88bdf4;fill-opacity:1;fill-rule:nonzero;stroke:none;stroke-width:0.09999999;stroke-linecap:round;stroke-linejoin:miter;stroke-miterlimit:10;stroke-dasharray:none;stroke-dashoffset:0;stroke-opacity:1;color-rendering:auto;image-rendering:auto;shape-rendering:auto;text-rendering:auto;enable-background:accumulate" />
    </clipPath>
    <clipPath
       clipPathUnits="userSpaceOnUse"
       id="clipPath903">
      <rect
         y="58.119045"
         x="18.142857"
         height="167.06548"
         width="169.33333"
         id="rect905"
         style="color:#000000;clip-rule:nonzero;display:inline;overflow:visible;visibility:visible;opacity:1;isolation:auto;mix-blend-mode:normal;color-interpolation:sRGB;color-interpolation-filters:linearRGB;solid-color:#000000;solid-opacity:1;vector-effect:none;fill:#88bdf4;fill-opacity:1;fill-rule:nonzero;stroke:none;stroke-width:0.09999999;stroke-linecap:round;stroke-linejoin:miter;stroke-miterlimit:10;stroke-dasharray:none;stroke-dashoffset:0;stroke-opacity:1;color-rendering:auto;image-rendering:auto;shape-rendering:auto;text-rendering:auto;enable-background:accumulate" />
    </clipPath>
    <clipPath
       clipPathUnits="userSpaceOnUse"
       id="clipPath909">
      <rect
         y="58.119045"
         x="18.142857"
         height="167.06548"
         width="169.33333"
         id="rect911"
         style="color:#000000;clip-rule:nonzero;display:inline;overflow:visible;visibility:visible;opacity:1;isolation:auto;mix-blend-mode:normal;color-interpolation:sRGB;color-interpolation-filters:linearRGB;solid-color:#000000;solid-opacity:1;vector-effect:none;fill:#88bdf4;fill-opacity:1;fill-rule:nonzero;stroke:none;stroke-width:0.09999999;stroke-linecap:round;stroke-linejoin:miter;stroke-miterlimit:10;stroke-dasharray:none;stroke-dashoffset:0;stroke-opacity:1;color-rendering:auto;image-rendering:auto;shape-rendering:auto;text-rendering:auto;enable-background:accumulate" />
    </clipPath>
  </defs>
  <sodipodi:namedview
     id="base"
     pagecolor="#ffffff"
     bordercolor="#666666"
     borderopacity="1.0"
     inkscape:pageopacity="0.0"
     inkscape:pageshadow="2"
     inkscape:zoom="0.7"
     inkscape:cx="-12.076514"
     inkscape:cy="788.76946"
     inkscape:document-units="mm"
     inkscape:current-layer="layer1"
     showgrid="false"
     inkscape:window-width="1920"
     inkscape:window-height="1017"
     inkscape:window-x="-8"
     inkscape:window-y="-8"
     inkscape:window-maximized="1" />
  <metadata
     id="metadata5">
    <rdf:RDF>
      <cc:Work
         rdf:about="">
        <dc:format>image/svg+xml</dc:format>
        <dc:type
           rdf:resource="http://purl.org/dc/dcmitype/StillImage" />
        <dc:title></dc:title>
      </cc:Work>
    </rdf:RDF>
  </metadata>
  <g
     inkscape:label="Layer 1"
     inkscape:groupmode="layer"
     id="layer1">
    <rect
       style="color:#000000;clip-rule:nonzero;display:inline;overflow:visible;visibility:visible;opacity:1;isolation:auto;mix-blend-mode:normal;color-interpolation:sRGB;color-interpolation-filters:linearRGB;solid-color:#000000;solid-opacity:1;vector-effect:none;fill:#158ddc;fill-opacity:1;fill-rule:nonzero;stroke:none;stroke-width:0.10000002;stroke-linecap:round;stroke-linejoin:miter;stroke-miterlimit:10;stroke-dasharray:none;stroke-dashoffset:0;stroke-opacity:1;color-rendering:auto;image-rendering:auto;shape-rendering:auto;text-rendering:auto;enable-background:accumulate"
       id="rect815"
       width="169.33333"
       height="86.763329"
       x="18.142857"
       y="50.72826" />
    <path
       sodipodi:type="spiral"
       style="color:#000000;clip-rule:nonzero;display:inline;overflow:visible;visibility:visible;opacity:1;isolation:auto;mix-blend-mode:normal;color-interpolation:sRGB;color-interpolation-filters:linearRGB;solid-color:#000000;solid-opacity:1;vector-effect:none;fill:none;fill-opacity:1;fill-rule:nonzero;stroke:#88a8e1;stroke-width:0.13876352;stroke-linecap:round;stroke-linejoin:miter;stroke-miterlimit:10;stroke-dasharray:none;stroke-dashoffset:0;stroke-opacity:1;color-rendering:auto;image-rendering:auto;shape-rendering:auto;text-rendering:auto;enable-background:accumulate"
       id="path817"
       sodipodi:cx="57.452377"
       sodipodi:cy="104.98809"
       sodipodi:expansion="1"
       sodipodi:revolution="3"
       sodipodi:radius="36.540741"
       sodipodi:argument="-18.166739"
       sodipodi:t0="0"
       d="m 57.452377,104.98809 c 1.421336,1.15602 -0.857051,2.48627 -1.921377,2.36235 -2.884256,-0.3358 -3.709365,-3.90096 -2.803329,-6.2051 1.620687,-4.121576 6.828156,-5.12094 10.488837,-3.244309 5.372197,2.754029 6.569316,9.793239 3.685281,14.772569 -3.843964,6.63666 -12.771537,8.03307 -19.056296,4.12626 -7.908728,-4.91634 -9.504729,-15.75608 -4.567234,-23.340031 5.979969,-9.185183 18.744114,-10.980944 27.623757,-5.00821 10.464352,7.038661 12.460019,21.734331 5.449185,31.907491 -8.094284,11.7453 -24.726011,13.941 -36.191216,5.89016 C 27.13249,117.10139 24.736661,98.530556 33.828847,85.774321 44.028906,71.463754 64.541007,68.867707 78.587523,79.002207 94.181819,90.253424 96.978155,112.70838 85.800614,128.04461"
       transform="matrix(1,0,0,0.51933725,0,20.544876)" />
    <path
       sodipodi:type="spiral"
       style="color:#000000;clip-rule:nonzero;display:inline;overflow:visible;visibility:visible;opacity:1;isolation:auto;mix-blend-mode:normal;color-interpolation:sRGB;color-interpolation-filters:linearRGB;solid-color:#000000;solid-opacity:1;vector-effect:none;fill:none;fill-opacity:1;fill-rule:nonzero;stroke:#cbe3eb;stroke-width:0.20319961;stroke-linecap:round;stroke-linejoin:miter;stroke-miterlimit:10;stroke-dasharray:none;stroke-dashoffset:0;stroke-opacity:1;color-rendering:auto;image-rendering:auto;shape-rendering:auto;text-rendering:auto;enable-background:accumulate"
       id="path817-7"
       sodipodi:cx="91.050774"
       sodipodi:cy="150.356"
       sodipodi:expansion="1"
       sodipodi:revolution="3"
       sodipodi:radius="36.540741"
       sodipodi:argument="-18.166739"
       sodipodi:t0="0"
       d="m 91.050774,150.356 c 1.421335,1.15602 -0.857052,2.48627 -1.921377,2.36236 -2.884256,-0.33581 -3.709366,-3.90097 -2.803329,-6.20511 1.620687,-4.12157 6.828155,-5.12094 10.488836,-3.24431 5.372196,2.75404 6.569316,9.79324 3.685286,14.77257 -3.843968,6.63666 -12.771542,8.03308 -19.056301,4.12626 -7.908728,-4.91633 -9.504729,-15.75608 -4.567233,-23.34003 5.979968,-9.18518 18.744113,-10.98094 27.623754,-5.00821 10.46435,7.03866 12.46002,21.73434 5.44919,31.90749 -8.09429,11.74531 -24.726014,13.941 -36.191219,5.89016 -13.027494,-9.14788 -15.423324,-27.71871 -6.331138,-40.47495 10.20006,-14.31056 30.71216,-16.90661 44.758677,-6.77211 15.5943,11.25122 18.39063,33.70617 7.21309,49.04241"
       transform="matrix(0.68291831,0,0,0.35463819,-4.135546,22.948359)" />
    <path
       sodipodi:type="spiral"
       style="color:#000000;clip-rule:nonzero;display:inline;overflow:visible;visibility:visible;opacity:1;isolation:auto;mix-blend-mode:normal;color-interpolation:sRGB;color-interpolation-filters:linearRGB;solid-color:#000000;solid-opacity:1;vector-effect:none;fill:none;fill-opacity:1;fill-rule:nonzero;stroke:#88b4e1;stroke-width:0.04701393;stroke-linecap:round;stroke-linejoin:miter;stroke-miterlimit:10;stroke-dasharray:none;stroke-dashoffset:0;stroke-opacity:1;color-rendering:auto;image-rendering:auto;shape-rendering:auto;text-rendering:auto;enable-background:accumulate"
       id="path817-3"
       sodipodi:cx="92.654388"
       sodipodi:cy="156.5032"
       sodipodi:expansion="1"
       sodipodi:revolution="3"
       sodipodi:radius="36.540741"
       sodipodi:argument="-18.166739"
       sodipodi:t0="0"
       d="m 92.654388,156.5032 c 1.421336,1.15602 -0.857051,2.48627 -1.921376,2.36236 -2.884256,-0.33581 -3.709366,-3.90097 -2.80333,-6.20511 1.620687,-4.12157 6.828156,-5.12094 10.488837,-3.2443 5.372201,2.75403 6.569311,9.79324 3.685281,14.77256 -3.843964,6.63666 -12.771537,8.03308 -19.056296,4.12626 -7.908728,-4.91633 -9.504729,-15.75607 -4.567234,-23.34003 5.979969,-9.18518 18.744114,-10.98094 27.62376,-5.00821 10.46435,7.03866 12.46002,21.73434 5.44918,31.90749 -8.09428,11.74531 -24.726009,13.941 -36.191214,5.89016 -13.027495,-9.14788 -15.423324,-27.71871 -6.331138,-40.47494 10.200059,-14.31057 30.71216,-16.90662 44.758672,-6.77212 15.5943,11.25122 18.39064,33.70617 7.21309,49.04241"
       transform="matrix(2.9513821,0,0,1.5329269,-189.11641,-147.95452)"
       clip-path="url(#clipPath878)" />
    <path
       sodipodi:type="spiral"
       style="color:#000000;clip-rule:nonzero;display:inline;overflow:visible;visibility:visible;opacity:1;isolation:auto;mix-blend-mode:normal;color-interpolation:sRGB;color-interpolation-filters:linearRGB;solid-color:#000000;solid-opacity:1;vector-effect:none;fill:none;fill-opacity:1;fill-rule:nonzero;stroke:#b0cdeb;stroke-width:0.06884526;stroke-linecap:round;stroke-linejoin:miter;stroke-miterlimit:10;stroke-dasharray:none;stroke-dashoffset:0;stroke-opacity:1;color-rendering:auto;image-rendering:auto;shape-rendering:auto;text-rendering:auto;enable-background:accumulate"
       id="path817-7-4"
       sodipodi:cx="91.050774"
       sodipodi:cy="150.356"
       sodipodi:expansion="1"
       sodipodi:revolution="3"
       sodipodi:radius="36.540741"
       sodipodi:argument="-18.166739"
       sodipodi:t0="0"
       d="m 91.050774,150.356 c 1.421335,1.15602 -0.857052,2.48627 -1.921377,2.36236 -2.884256,-0.33581 -3.709366,-3.90097 -2.803329,-6.20511 1.620687,-4.12157 6.828155,-5.12094 10.488836,-3.24431 5.372196,2.75404 6.569316,9.79324 3.685286,14.77257 -3.843968,6.63666 -12.771542,8.03308 -19.056301,4.12626 -7.908728,-4.91633 -9.504729,-15.75608 -4.567233,-23.34003 5.979968,-9.18518 18.744113,-10.98094 27.623754,-5.00821 10.46435,7.03866 12.46002,21.73434 5.44919,31.90749 -8.09429,11.74531 -24.726014,13.941 -36.191219,5.89016 -13.027494,-9.14788 -15.423324,-27.71871 -6.331138,-40.47495 10.20006,-14.31056 30.71216,-16.90661 44.758677,-6.77211 15.5943,11.25122 18.39063,33.70617 7.21309,49.04241"
       transform="matrix(2.0155529,0,0,1.0467851,-97.427408,-61.891256)" />
    <path
       sodipodi:type="spiral"
       style="color:#000000;clip-rule:nonzero;display:inline;overflow:visible;visibility:visible;opacity:1;isolation:auto;mix-blend-mode:normal;color-interpolation:sRGB;color-interpolation-filters:linearRGB;solid-color:#000000;solid-opacity:1;vector-effect:none;fill:none;fill-opacity:1;fill-rule:nonzero;stroke:#88a8e1;stroke-width:0.13876352;stroke-linecap:round;stroke-linejoin:miter;stroke-miterlimit:10;stroke-dasharray:none;stroke-dashoffset:0;stroke-opacity:1;color-rendering:auto;image-rendering:auto;shape-rendering:auto;text-rendering:auto;enable-background:accumulate"
       id="path882"
       sodipodi:cx="161.39583"
       sodipodi:cy="70.592255"
       sodipodi:expansion="1"
       sodipodi:revolution="3"
       sodipodi:radius="20.314241"
       sodipodi:argument="-18.077314"
       sodipodi:t0="0"
       d="m 161.39583,70.592255 c 0.72962,0.710667 -0.598,1.334128 -1.18118,1.212673 -1.58037,-0.329138 -1.86025,-2.344175 -1.24417,-3.575026 1.10202,-2.201704 4.03508,-2.496525 5.96888,-1.275666 2.83792,1.79166 3.1513,5.748793 1.30716,8.362723 -2.45795,3.483959 -7.47059,3.813939 -10.75657,1.33866 -4.13508,-3.114885 -4.48064,-9.196226 -1.37016,-13.150421 3.76721,-4.789061 10.92403,-5.149686 15.54427,-1.401654 5.44479,4.416927 5.82021,12.653188 1.43315,17.93812 -5.06503,6.101663 -14.38324,6.491722 -20.33197,1.464647 -6.75932,-5.712081 -7.16392,-16.113935 -1.49614,-22.725818 6.35839,-7.417533 17.84509,-7.83662 25.11967,-1.527641 8.07616,7.004163 8.50969,19.576587 1.55913,27.513517"
       clip-path="url(#clipPath903)"
       transform="matrix(1,0,0,0.51933725,0,20.544876)" />
    <path
       sodipodi:type="spiral"
       style="color:#000000;clip-rule:nonzero;display:inline;overflow:visible;visibility:visible;opacity:1;isolation:auto;mix-blend-mode:normal;color-interpolation:sRGB;color-interpolation-filters:linearRGB;solid-color:#000000;solid-opacity:1;vector-effect:none;fill:none;fill-opacity:1;fill-rule:nonzero;stroke:#88a8e1;stroke-width:0.13876352;stroke-linecap:round;stroke-linejoin:miter;stroke-miterlimit:10;stroke-dasharray:none;stroke-dashoffset:0;stroke-opacity:1;color-rendering:auto;image-rendering:auto;shape-rendering:auto;text-rendering:auto;enable-background:accumulate"
       id="path884"
       sodipodi:cx="178.78275"
       sodipodi:cy="95.160713"
       sodipodi:expansion="1"
       sodipodi:revolution="3"
       sodipodi:radius="12.705848"
       sodipodi:argument="-16.748545"
       sodipodi:t0="0"
       d="m 178.78275,95.160713 c -0.32217,0.549583 -0.89978,-0.163132 -0.91345,-0.535465 -0.037,-1.009001 1.14461,-1.481014 1.98438,-1.291421 1.50215,0.339139 2.12086,2.076 1.66939,3.433283 -0.66253,1.991866 -3.01847,2.775358 -4.88219,2.047375 -2.48404,-0.970287 -3.43584,-3.964674 -2.42535,-6.331099 1.2716,-2.977905 4.9126,-4.099367 7.78001,-2.80333 3.47281,1.569675 4.76464,5.861492 3.18131,9.228915 -1.86591,3.968389 -6.81099,5.431019 -10.67783,3.559289 -4.46442,-2.161 -6.09813,-7.760873 -3.93726,-12.126736 2.45532,-4.96077 8.71104,-6.765756 13.57564,-4.31524 5.45735,2.749109 7.43375,9.661415 4.69322,15.024546 -3.04252,5.9541 -10.61195,8.10203 -16.47346,5.0712"
       clip-path="url(#clipPath909)"
       transform="matrix(1,0,0,0.51933725,0,20.544876)" />
  </g>
</svg>
